<svg width="68" height="20" viewBox="0 0 68 20" fill="none" xmlns="http://www.w3.org/2000/svg">
<rect width="68" height="20" rx="4" fill="black"/>
<g clip-path="url(#clip0_597_2542)">
<path d="M15.9392 6H14.6044V12.7689H15.9392V6Z" fill="white"/>
<path d="M13.0711 6.37876H11.7363V13.1475H13.0711V6.37876Z" fill="white"/>
<path d="M10.203 6.80162H8.86814V13.5716H10.203V6.80162Z" fill="white"/>
<path d="M7.33482 7.22917H6L6.00001 14H7.33482L7.33482 7.22917Z" fill="white"/>
<path d="M51.194 9.60656L49.0447 7.21695H47.7882V12.7497H49.1001V9.21971L51.0623 11.3111H51.3047L53.2332 9.21971V12.7497H54.5451V7.21695H53.2886L51.194 9.60656Z" fill="white"/>
<path d="M60.795 7.21695L57.5435 10.813V7.21695H56.2316V12.7497H57.4335L60.685 9.15362V12.7497H61.9969V7.21695H60.795Z" fill="white"/>
<path d="M40.7222 9.24147C40.7222 10.1224 41.2039 10.8163 41.9433 11.1072L40.5568 12.7497H42.1625L43.4238 11.2555H44.7886V12.7497H46.1005V7.21695H42.7606C41.5154 7.21695 40.7222 8.06883 40.7222 9.24147ZM44.7895 8.43553V10.0716H43.0039C42.4082 10.0716 42.0886 9.73954 42.0886 9.25275C42.0886 8.76596 42.4194 8.43392 43.0039 8.43392L44.7895 8.43553Z" fill="white"/>
<path d="M34.626 8.3235C34.5457 10.2263 34.1443 11.4546 33.3583 11.4546H33.1616V12.7828L33.3712 12.794C34.9472 12.8819 35.8183 11.4989 35.9612 8.47824H38.0341V12.7497H39.3436V7.21695H34.6702L34.626 8.3235Z" fill="white"/>
<path d="M29.6877 7.13965C27.9134 7.13965 26.6369 8.3679 26.6369 9.983C26.6369 11.6537 28.0258 12.8384 29.6877 12.8384C31.4187 12.8384 32.7635 11.5876 32.7635 9.983C32.7635 8.37838 31.4187 7.13965 29.6877 7.13965ZM29.6877 11.5103C28.685 11.5103 28.0017 10.8574 28.0017 9.983C28.0017 9.0868 28.6858 8.45172 29.6877 8.45172C30.6897 8.45172 31.3962 9.11581 31.3962 9.983C31.3962 10.8502 30.6801 11.5103 29.6877 11.5103Z" fill="white"/>
<path d="M25.2456 7.22739H20.6155L20.5713 8.33394C20.5055 9.92809 20.0896 11.4441 19.3036 11.4658L18.9399 11.4771V14.0003L20.263 13.9976V12.7505H24.8594V13.9976H26.1937V11.4658H25.2456V7.22739ZM23.9337 11.4658H21.1341C21.6078 10.7469 21.8615 9.70645 21.9057 8.48949H23.9337V11.4658Z" fill="white"/>
</g>
<defs>
<clipPath id="clip0_597_2542">
<rect width="56" height="8" fill="white" transform="translate(6 6)"/>
</clipPath>
</defs>
</svg>
