<svg width="24" height="24" viewBox="0 0 24 24" fill="none" xmlns="http://www.w3.org/2000/svg">
<rect x="0.5" y="7.5" width="23" height="16" stroke="black"/>
<path fill-rule="evenodd" clip-rule="evenodd" d="M18.4813 7C18.2259 3.64378 15.4218 1 12.0002 1C8.57858 1 5.77446 3.64378 5.51914 7H4.5166C4.77389 3.09098 8.02608 0 12.0002 0C15.9743 0 19.2265 3.09098 19.4838 7H18.4813Z" fill="black"/>
<path d="M11.9896 19.1C11.6963 19.1 11.4563 19.09 11.2696 19.07C11.0829 19.05 10.8796 19.01 10.6596 18.95C10.4329 18.8833 10.2496 18.79 10.1096 18.67C9.96961 18.5433 9.85294 18.3633 9.75961 18.13C9.65961 17.9033 9.60961 17.63 9.60961 17.31V14.2C9.60961 13.8933 9.65628 13.6233 9.74961 13.39C9.84294 13.1567 9.96294 12.9733 10.1096 12.84C10.2363 12.7267 10.4096 12.6367 10.6296 12.57C10.8496 12.4967 11.0696 12.45 11.2896 12.43C11.5429 12.4167 11.7763 12.41 11.9896 12.41C12.2896 12.41 12.5296 12.42 12.7096 12.44C12.8896 12.4533 13.0896 12.4933 13.3096 12.56C13.5496 12.6333 13.7396 12.73 13.8796 12.85C14.0196 12.97 14.1396 13.1433 14.2396 13.37C14.3396 13.5967 14.3896 13.8733 14.3896 14.2V17.31C14.3896 17.6167 14.3396 17.8867 14.2396 18.12C14.1463 18.3533 14.0263 18.5333 13.8796 18.66C13.7463 18.7733 13.5629 18.8667 13.3296 18.94C13.1029 19.0133 12.8863 19.0567 12.6796 19.07C12.4929 19.09 12.2629 19.1 11.9896 19.1ZM12.0096 18.16C12.2896 18.16 12.4896 18.1433 12.6096 18.11C12.7296 18.07 12.8096 18 12.8496 17.9C12.8896 17.8 12.9096 17.6367 12.9096 17.41V14.1C12.9096 13.8733 12.8896 13.71 12.8496 13.61C12.8096 13.51 12.7296 13.4433 12.6096 13.41C12.4896 13.37 12.2896 13.35 12.0096 13.35C11.7229 13.35 11.5163 13.37 11.3896 13.41C11.2696 13.4433 11.1896 13.51 11.1496 13.61C11.1096 13.71 11.0896 13.8733 11.0896 14.1V17.41C11.0896 17.6367 11.1096 17.8 11.1496 17.9C11.1896 18 11.2696 18.07 11.3896 18.11C11.5163 18.1433 11.7229 18.16 12.0096 18.16Z" fill="black"/>
</svg>
