<svg width="16" height="16" viewBox="0 0 16 16" fill="none" xmlns="http://www.w3.org/2000/svg">
<path d="M7.61132 1.98586L8 2.46619L8.38868 1.98586C9.12281 1.07863 10.2436 0.5 11.5 0.5C13.6759 0.5 15.5 2.2417 15.5 5C15.5 6.01233 14.9792 7.08548 13.62 8.67506C12.9324 9.47922 11.4326 11.2289 10.1045 12.7779L8.3645 14.807L8 15.232L7.63551 14.807L5.89549 12.7779C4.56739 11.2289 3.06764 9.47922 2.38002 8.67506C1.02081 7.08548 0.5 6.01233 0.5 5C0.5 2.2417 2.32409 0.5 4.5 0.5C5.75635 0.5 6.87719 1.07863 7.61132 1.98586Z" stroke="black"/>
</svg>
