<svg width="113" height="30" viewBox="0 0 113 30" fill="none" xmlns="http://www.w3.org/2000/svg">
<g clip-path="url(#clip0_597_2794)">
<path d="M51.2195 23.7645C50.7749 23.0276 50.4186 22.2399 50.1582 21.4181L44.0131 3.4502H41.1369L34.3233 20.8181C33.9143 21.8655 33.4393 22.8855 32.9011 23.8716C32.5403 24.4288 32.0414 25.3609 31.5532 25.5966V25.8002H36.6688V25.5966C35.6818 25.5966 35.5119 24.0002 36.2124 21.9859L37.8681 17.3038H44.5438L46.2313 22.3288C46.815 24.0323 46.5921 25.543 45.5308 25.5966V25.8002H52.7478V25.5966C52.0812 25.1394 51.5524 24.5054 51.2195 23.7645ZM38.3563 15.7288L41.328 7.29662L44.0131 15.7288H38.3563Z" fill="black"/>
<path d="M0 4.09282C0 4.09282 1.6875 3.92139 1.6875 8.8071V20.9142C1.6875 25.8 0 25.6285 0 25.6285V25.8H7.11085V25.6285C7.11085 25.6285 5.43396 25.8 5.43396 20.9142V15H6.81368C7.5566 15 11.8337 15.0642 12.7252 15.4714C13.1775 15.6786 13.5731 15.9935 13.8782 16.3892C14.1832 16.7849 14.3885 17.2494 14.4764 17.7428H14.7099V11.1428H14.4764C14.3732 11.6143 14.1606 12.0544 13.8562 12.4269C13.5518 12.7994 13.1642 13.0937 12.7252 13.2857C11.855 13.6928 7.54599 13.7142 6.81368 13.7142H5.42335V5.22853H11.7276C16.2382 5.22853 17.0342 8.03567 17.0342 8.03567H17.2465V3.92139H0V4.09282Z" fill="black"/>
<path d="M70.6413 14.9998C69.5874 14.5299 68.4588 14.2541 67.3087 14.1855C68.9938 13.8986 70.5504 13.0942 71.7663 11.8819C72.1798 11.4056 72.4883 10.8459 72.6713 10.24C72.8543 9.63414 72.9076 8.99591 72.8276 8.36766C72.7745 7.63223 72.5251 6.92505 72.1059 6.32123C71.5509 5.5102 70.7669 4.8867 69.8559 4.53194C68.581 4.08462 67.2356 3.87761 65.8866 3.92123H57.1943V4.09266C57.1943 4.09266 58.8818 3.92123 58.8818 8.80694V20.9141C58.8818 25.7998 57.1943 25.6284 57.1943 25.6284V25.7998H65.5257C67.6349 25.8944 69.7288 25.3975 71.5752 24.3641C72.3968 23.8153 73.0588 23.0556 73.4934 22.1631C73.9279 21.2706 74.1194 20.2774 74.0481 19.2855C74.0378 18.7764 73.9183 18.2757 73.6979 17.8177C73.0691 16.5216 71.9768 15.5146 70.6413 14.9998ZM63.0422 5.22837H65.3241C70.6307 5.22837 69.5693 10.3927 68.508 11.8391C67.9204 12.6272 67.0737 13.178 66.12 13.3927C65.1077 13.6012 64.075 13.6911 63.0422 13.6605V5.22837ZM68.9856 23.1534C67.8695 24.1214 66.4205 24.6064 64.9526 24.5034H63.0422V14.9998H65.5894C65.9442 14.998 66.2987 15.0195 66.6507 15.0641C67.5231 15.0977 68.3627 15.409 69.0493 15.9534C69.5256 16.3307 69.9006 16.8227 70.1398 17.3843C70.379 17.9459 70.4748 18.559 70.4184 19.1677C70.4541 19.8948 70.3457 20.6218 70.0997 21.3062C69.8537 21.9906 69.4749 22.6186 68.9856 23.1534Z" fill="black"/>
<path d="M87.0282 24.5035H83.6107V8.8071C83.6107 3.92139 85.2876 4.09282 85.2876 4.09282V3.92139H78.1768V4.09282C78.1768 4.09282 79.8643 3.92139 79.8643 8.8071V20.9142C79.8643 25.8 78.1768 25.6285 78.1768 25.6285V25.8H91.7086L92.3348 21.4285H92.1225C92.1225 21.4285 89.8513 24.5035 87.0282 24.5035Z" fill="black"/>
<path d="M112.288 21.4285C112.288 21.4285 111.407 24.5464 107.246 24.5464H102.216V15H103.596C104.638 14.9656 105.678 15.1254 106.663 15.4714C107.115 15.6795 107.512 15.9945 107.818 16.3899C108.125 16.7852 108.333 17.2493 108.425 17.7428H108.647V11.1428H108.425C108.318 11.6144 108.103 12.0541 107.797 12.4263C107.491 12.7985 107.102 13.0929 106.663 13.2857C105.675 13.6188 104.635 13.7641 103.596 13.7142H102.216V5.22853H106.323C107.288 5.17727 108.246 5.41678 109.076 5.91663C109.905 6.41648 110.569 7.15408 110.982 8.03567H111.216V3.92139H96.7925V4.09282C96.7925 4.09282 98.48 3.92139 98.48 8.8071V20.9142C98.48 25.8 96.7925 25.6285 96.7925 25.6285V25.8H111.906L112.5 21.4285H112.288Z" fill="black"/>
<path d="M25.5142 0H23.2642V30H25.5142V0Z" fill="black"/>
</g>
<defs>
<clipPath id="clip0_597_2794">
<rect width="112.5" height="30" fill="white"/>
</clipPath>
</defs>
</svg>
